Coordinates
version=1
nRows=10
nColumns=22
inDegrees=yes

Units are S.I. units (second, meters, Newtons, ...)
If the header above contains a line with 'inDegrees', this indicates whether rotational values are in degrees (yes) or radians (no).

endheader
time	pelvis_tilt	pelvis_list	pelvis_rotation	pelvis_tx	pelvis_ty	pelvis_tz	hip_flexion_r	hip_adduction_r	hip_rotation_r	knee_angle_r	ankle_angle_r	subtalar_angle_r	hip_flexion_l	hip_adduction_l	hip_rotation_l	knee_angle_l	ankle_angle_l	subtalar_angle_l	lumbar_extension	lumbar_bending	lumbar_rotation
      0.01000000	     -1.47207770	      0.11642051	    182.28135217	      0.17260923	      1.08694200	      1.19032171	     -4.50755636	      2.69523821	     -0.09865830	     -8.14836513	     12.12892722	     -3.93968878	     -3.16935236	      0.93054993	      0.36244531	    -10.48681512	     12.57437318	     -2.75397904	     -0.95364660	     -1.66553355	     -4.87114186
      0.02000000	     -1.46572809	      0.11958485	    182.28007347	      0.17255924	      1.08693132	      1.19037433	     -4.50372973	      2.69565019	     -0.09845711	     -8.14671794	     12.12906514	     -3.94009464	     -3.16723655	      0.92999332	      0.36214785	    -10.48403488	     12.57464817	     -2.75498411	     -0.96459559	     -1.67048299	     -4.87025913
      0.03000000	     -1.45875637	      0.12294684	    182.27888905	      0.17250028	      1.08692015	      1.19043659	     -4.49894408	      2.69576686	     -0.09746797	     -8.14672918	     12.12909087	     -3.94054339	     -3.16505548	      0.92981435	      0.36179888	    -10.48107390	     12.57517382	     -2.75608918	     -0.97772050	     -1.67697969	     -4.86782639
      0.04000000	     -1.45499840	      0.11172068	    182.25563805	      0.17244687	      1.08690950	      1.19048208	     -4.48305793	      2.67770782	     -0.08073413	     -8.17432720	     12.14249039	     -3.94988238	     -3.17196867	      0.94772524	      0.34443678	    -10.47114512	     12.57541942	     -2.77511620	     -0.99810375	     -1.70092687	     -4.82792454
      0.05000000	     -1.44681332	      0.11645376	    182.25304316	      0.17237382	      1.08689706	      1.19054926	     -4.47892254	      2.67893972	     -0.08010471	     -8.17160895	     12.14286079	     -3.95005072	     -3.16954067	      0.94670147	      0.34396532	    -10.46813016	     12.57522021	     -2.77570356	     -1.01114649	     -1.70796690	     -4.82797742
      0.06000000	     -1.43869309	      0.12073920	    182.25121768	      0.17230164	      1.08688567	      1.19062456	     -4.47447983	      2.67926330	     -0.07876781	     -8.17011683	     12.14311917	     -3.95019643	     -3.16721424	      0.94673308	      0.34325673	    -10.46456081	     12.57528837	     -2.77640205	     -1.02450086	     -1.71446730	     -4.82727460
      0.07000000	     -1.43068846	      0.12470352	    182.24837765	      0.17223266	      1.08687392	      1.19069602	     -4.46969803	      2.67933513	     -0.07733532	     -8.16894471	     12.14333591	     -3.95030114	     -3.16493190	      0.94726154	      0.34244799	    -10.46051184	     12.57553683	     -2.77721615	     -1.03779984	     -1.72126663	     -4.82695701
      0.08000000	     -1.42287039	      0.12828304	    182.24472701	      0.17216389	      1.08686391	      1.19076662	     -4.46516644	      2.67902628	     -0.07587705	     -8.16846317	     12.14338041	     -3.95039252	     -3.16313984	      0.94835602	      0.34136966	    -10.45623545	     12.57587227	     -2.77817806	     -1.04976671	     -1.72793085	     -4.82746314
      0.09000000	     -1.41521468	      0.13150091	    182.24020664	      0.17209564	      1.08685452	      1.19083212	     -4.46061707	      2.67866788	     -0.07460404	     -8.16845918	     12.14310875	     -3.95049933	     -3.16165376	      0.95003348	      0.33982701	    -10.45141127	     12.57624511	     -2.77933455	     -1.06054543	     -1.73453287	     -4.82914769
      0.10000000	     -1.40616110	      0.12724675	    182.22868255	      0.17203100	      1.08684321	      1.19088709	     -4.44735345	      2.66994615	     -0.06568391	     -8.18318274	     12.13904365	     -3.95171824	     -3.16397010	      0.96037371	      0.32962250	    -10.43605907	     12.57622620	     -2.78705985	     -1.06827091	     -1.74862707	     -4.83672192
